<svg width="750" height="750" viewBox="0 0 750 750" fill="none" xmlns="http://www.w3.org/2000/svg">
<path fill-rule="evenodd" clip-rule="evenodd" d="M226.174 286.778C129.011 288.473 43.31 347.272 25.1109 430.685C4.32466 525.971 79.4699 617.471 192.873 634.992C192.896 635.139 192.856 635.356 192.845 635.566L192.195 635.596L103.832 724.838L285.378 632.214L283.59 632.274L284.755 631.308L287.356 631.217L285.378 632.214L287.871 632.123V631.187H287.898C366.456 612.395 421.531 561.479 436.251 493.987C457.045 398.661 381.807 307.123 268.329 289.65C254.144 287.467 240.047 286.539 226.166 286.781L226.174 286.778Z" fill="black" fill-opacity="0.49804"/>
<path fill-rule="evenodd" clip-rule="evenodd" d="M251.145 252.884C153.982 254.58 68.28 313.378 50.085 396.788C29.2995 492.075 104.444 583.573 217.845 601.1C217.869 601.247 217.829 601.464 217.818 601.674L217.168 601.704L128.804 690.946L310.349 598.322L308.561 598.383L309.726 597.416L312.327 597.326L310.349 598.322L312.842 598.232V597.296H312.869C391.427 578.503 446.503 527.587 461.225 460.096C482.02 364.77 406.781 273.23 293.3 255.768C279.116 253.585 265.018 252.657 251.137 252.899L251.145 252.884Z" fill="#3399FF"/>
<path d="M310.349 598.322L128.804 690.946L217.168 601.704L217.818 601.674C217.829 601.464 217.869 601.247 217.845 601.1C104.444 583.573 29.2995 492.075 50.085 396.788C68.28 313.378 153.983 254.58 251.145 252.884L251.137 252.899C265.018 252.657 279.116 253.585 293.3 255.768C406.781 273.23 482.02 364.77 461.225 460.096C446.503 527.587 391.427 578.503 312.869 597.296H312.842V598.232L310.349 598.322ZM310.349 598.322L308.561 598.383L309.726 597.416L312.327 597.326L310.349 598.322Z" stroke="black" stroke-width="15" stroke-linecap="round" stroke-linejoin="round"/>
<path fill-rule="evenodd" clip-rule="evenodd" d="M423.478 73.1465C545.676 75.2788 653.459 149.228 676.348 254.133C702.49 373.972 607.982 489.048 465.36 511.084C465.33 511.268 465.38 511.541 465.394 511.805L466.212 511.843L577.343 624.079L349.018 507.589L351.268 507.665L349.802 506.45L346.531 506.336L349.018 507.589L345.883 507.475V506.298H345.849C247.05 482.664 177.784 418.629 159.272 333.746C133.12 213.859 227.744 98.7339 370.461 76.7592C388.301 74.013 406.031 72.8463 423.487 73.1509L423.478 73.1465Z" fill="black" fill-opacity="0.49804"/>
<path fill-rule="evenodd" clip-rule="evenodd" d="M456.135 40.5081C578.332 42.6403 686.115 116.589 709.005 221.494C735.147 341.331 640.639 456.396 498.03 478.435C498 478.619 498.051 478.893 498.064 479.156L498.882 479.194L610.013 591.43L381.682 474.94L383.932 475.016L382.466 473.8L379.195 473.686L381.682 474.94L378.547 474.826V473.648H378.513C279.716 450.015 210.453 385.98 191.928 301.1C165.776 181.212 260.4 66.0842 403.113 44.1104C420.953 41.3643 438.683 40.1975 456.14 40.5021L456.135 40.5081Z" fill="#68FF33"/>
<path d="M381.682 474.94L610.012 591.43L498.882 479.194L498.064 479.157C498.051 478.893 498 478.619 498.03 478.435C640.639 456.396 735.147 341.331 709.005 221.494C686.115 116.589 578.332 42.6403 456.135 40.5081L456.14 40.5021C438.683 40.1975 420.953 41.3643 403.113 44.1104C260.4 66.0842 165.776 181.212 191.928 301.1C210.453 385.98 279.716 450.015 378.513 473.648H378.547V474.826L381.682 474.94ZM381.682 474.94L383.932 475.016L382.466 473.8L379.195 473.686L381.682 474.94Z" stroke="black" stroke-width="20" stroke-linecap="round" stroke-linejoin="round"/>
<path d="M264.006 182.991C264.006 181.692 264.253 180.47 264.748 179.326C265.243 178.151 265.923 177.146 266.789 176.311C267.655 175.445 268.66 174.765 269.804 174.27C270.979 173.744 272.216 173.481 273.515 173.481H309.604C310.903 173.481 312.124 173.744 313.269 174.27C314.444 174.765 315.464 175.445 316.33 176.311C317.196 177.146 317.876 178.151 318.371 179.326C318.866 180.47 319.113 181.692 319.113 182.991V191.572H309.604V182.991H273.515V230.491H309.604V221.956H319.113V230.491C319.113 231.79 318.866 233.027 318.371 234.202C317.876 235.346 317.196 236.351 316.33 237.217C315.464 238.083 314.444 238.763 313.269 239.258C312.124 239.753 310.903 240 309.604 240H273.515C272.216 240 270.979 239.753 269.804 239.258C268.66 238.763 267.655 238.083 266.789 237.217C265.923 236.351 265.243 235.346 264.748 234.202C264.253 233.027 264.006 231.79 264.006 230.491V182.991ZM376.123 230.862C376.123 232.13 375.875 233.32 375.38 234.434C374.917 235.547 374.267 236.521 373.432 237.356C372.628 238.16 371.669 238.809 370.556 239.304C369.474 239.768 368.299 240 367.031 240H342.492C341.255 240 340.08 239.768 338.967 239.304C337.854 238.809 336.879 238.16 336.044 237.356C335.24 236.521 334.591 235.547 334.096 234.434C333.632 233.32 333.4 232.13 333.4 230.862V199.736C333.4 198.468 333.632 197.278 334.096 196.165C334.591 195.051 335.24 194.093 336.044 193.289C336.879 192.454 337.854 191.804 338.967 191.34C340.08 190.846 341.255 190.598 342.492 190.598H367.031C368.299 190.598 369.474 190.846 370.556 191.34C371.669 191.804 372.628 192.454 373.432 193.289C374.267 194.093 374.917 195.051 375.38 196.165C375.875 197.278 376.123 198.468 376.123 199.736V230.862ZM342.492 199.736V230.862H367.031V199.736H342.492ZM435.08 240H425.942V199.736H400.476V240H391.384V190.598H400.476V199.319C400.537 198.113 400.816 196.984 401.311 195.933C401.805 194.85 402.455 193.923 403.259 193.149C404.094 192.345 405.052 191.727 406.135 191.294C407.217 190.83 408.377 190.598 409.614 190.598H425.942C427.21 190.598 428.4 190.846 429.514 191.34C430.627 191.804 431.586 192.454 432.39 193.289C433.225 194.093 433.874 195.051 434.338 196.165C434.833 197.278 435.08 198.468 435.08 199.736V240ZM493.991 240H484.853V199.736H459.387V240H450.295V190.598H459.387V199.319C459.449 198.113 459.727 196.984 460.222 195.933C460.716 194.85 461.366 193.923 462.17 193.149C463.005 192.345 463.964 191.727 465.046 191.294C466.128 190.83 467.288 190.598 468.525 190.598H484.853C486.121 190.598 487.312 190.846 488.425 191.34C489.538 191.804 490.497 192.454 491.301 193.289C492.136 194.093 492.785 195.051 493.249 196.165C493.744 197.278 493.991 198.468 493.991 199.736V240ZM551 219.961H518.298V230.862H551V240H518.298C517.061 240 515.886 239.768 514.772 239.304C513.659 238.809 512.685 238.16 511.85 237.356C511.046 236.521 510.397 235.547 509.902 234.434C509.438 233.32 509.206 232.13 509.206 230.862V199.736C509.206 198.468 509.438 197.278 509.902 196.165C510.397 195.051 511.046 194.093 511.85 193.289C512.685 192.454 513.659 191.804 514.772 191.34C515.886 190.846 517.061 190.598 518.298 190.598H541.862C543.13 190.598 544.321 190.846 545.434 191.34C546.547 191.804 547.506 192.454 548.31 193.289C549.145 194.093 549.794 195.051 550.258 196.165C550.753 197.278 551 198.468 551 199.736V219.961ZM518.298 199.736V210.823H541.862V199.736H518.298ZM575.354 199.736V230.862H598.918V222.512H608.056V230.862C608.056 232.13 607.809 233.32 607.314 234.434C606.85 235.547 606.201 236.521 605.366 237.356C604.562 238.16 603.603 238.809 602.49 239.304C601.376 239.768 600.186 240 598.918 240H575.354C574.117 240 572.941 239.768 571.828 239.304C570.715 238.809 569.741 238.16 568.906 237.356C568.102 236.521 567.452 235.547 566.958 234.434C566.494 233.32 566.262 232.13 566.262 230.862V199.736C566.262 198.468 566.494 197.278 566.958 196.165C567.452 195.051 568.102 194.093 568.906 193.289C569.741 192.454 570.715 191.804 571.828 191.34C572.941 190.846 574.117 190.598 575.354 190.598H598.918C600.186 190.598 601.376 190.846 602.49 191.34C603.603 191.804 604.562 192.454 605.366 193.289C606.201 194.093 606.85 195.051 607.314 196.165C607.809 197.278 608.056 198.468 608.056 199.736V208.086H598.918V199.736H575.354ZM620.441 190.598H632.502V175.383H641.64V190.598H657.875V199.736H641.64V230.862H657.875V240H641.64C640.403 240 639.228 239.768 638.115 239.304C637.001 238.809 636.027 238.16 635.192 237.356C634.357 236.521 633.693 235.547 633.198 234.434C632.734 233.32 632.502 232.13 632.502 230.862V199.736H620.441V190.598ZM350.981 352.991C350.981 351.692 351.228 350.47 351.723 349.326C352.218 348.151 352.898 347.146 353.764 346.311C354.63 345.445 355.635 344.765 356.779 344.27C357.954 343.744 359.191 343.481 360.49 343.481H396.579C397.878 343.481 399.099 343.744 400.244 344.27C401.419 344.765 402.439 345.445 403.305 346.311C404.171 347.146 404.851 348.151 405.346 349.326C405.841 350.47 406.088 351.692 406.088 352.991V361.572H396.579V352.991H360.49V400.491H396.579V391.956H406.088V400.491C406.088 401.79 405.841 403.027 405.346 404.202C404.851 405.346 404.171 406.351 403.305 407.217C402.439 408.083 401.419 408.763 400.244 409.258C399.099 409.753 397.878 410 396.579 410H360.49C359.191 410 357.954 409.753 356.779 409.258C355.635 408.763 354.63 408.083 353.764 407.217C352.898 406.351 352.218 405.346 351.723 404.202C351.228 403.027 350.981 401.79 350.981 400.491V352.991ZM464.072 410H454.934V369.736H429.467V410H420.375V341.58H429.467V369.319C429.529 368.113 429.807 366.984 430.302 365.933C430.797 364.85 431.446 363.923 432.25 363.149C433.085 362.345 434.044 361.727 435.126 361.294C436.209 360.83 437.368 360.598 438.605 360.598H454.934C456.201 360.598 457.392 360.846 458.505 361.34C459.619 361.804 460.577 362.454 461.381 363.289C462.216 364.093 462.866 365.051 463.33 366.165C463.824 367.278 464.072 368.468 464.072 369.736V410ZM479.287 388.43C479.287 387.162 479.519 385.987 479.982 384.905C480.477 383.792 481.127 382.817 481.931 381.982C482.766 381.147 483.74 380.498 484.853 380.034C485.966 379.539 487.141 379.292 488.378 379.292H511.943V369.736H482.116V360.598H511.943C513.211 360.598 514.401 360.846 515.515 361.34C516.628 361.804 517.587 362.454 518.391 363.289C519.226 364.093 519.875 365.051 520.339 366.165C520.834 367.278 521.081 368.468 521.081 369.736V410H511.943V401.65C511.85 402.795 511.541 403.877 511.015 404.897C510.489 405.918 509.809 406.815 508.974 407.588C508.17 408.33 507.242 408.918 506.191 409.351C505.139 409.784 504.026 410 502.851 410H488.378C487.141 410 485.966 409.768 484.853 409.304C483.74 408.809 482.766 408.16 481.931 407.356C481.127 406.521 480.477 405.547 479.982 404.434C479.519 403.32 479.287 402.13 479.287 400.862V388.43ZM488.378 400.862H511.943V388.43H488.378V400.862ZM533.466 360.598H545.527V345.383H554.665V360.598H570.9V369.736H554.665V400.862H570.9V410H554.665C553.428 410 552.253 409.768 551.14 409.304C550.026 408.809 549.052 408.16 548.217 407.356C547.382 406.521 546.717 405.547 546.223 404.434C545.759 403.32 545.527 402.13 545.527 400.862V369.736H533.466V360.598Z" fill="#3399FF"/>
<path d="M435.776 258.481V325H426.267V258.481H435.776ZM495.661 325H486.523V284.736H461.057V325H451.965V275.598H461.057V284.319C461.118 283.113 461.397 281.984 461.892 280.933C462.386 279.85 463.036 278.923 463.84 278.149C464.675 277.345 465.633 276.727 466.716 276.294C467.798 275.83 468.958 275.598 470.195 275.598H486.523C487.791 275.598 488.981 275.846 490.095 276.34C491.208 276.804 492.167 277.454 492.971 278.289C493.806 279.093 494.455 280.051 494.919 281.165C495.414 282.278 495.661 283.468 495.661 284.736V325Z" fill="#3399FF"/>
<path d="M435.776 258.481V325H426.267V258.481H435.776ZM495.661 325H486.523V284.736H461.057V325H451.965V275.598H461.057V284.319C461.118 283.113 461.397 281.984 461.892 280.933C462.386 279.85 463.036 278.923 463.84 278.149C464.675 277.345 465.633 276.727 466.716 276.294C467.798 275.83 468.958 275.598 470.195 275.598H486.523C487.791 275.598 488.981 275.846 490.095 276.34C491.208 276.804 492.167 277.454 492.971 278.289C493.806 279.093 494.455 280.051 494.919 281.165C495.414 282.278 495.661 283.468 495.661 284.736V325Z" fill="black"/>
<path d="M264.748 179.326L269.337 181.311L269.347 181.289L269.356 181.266L264.748 179.326ZM266.789 176.311L270.26 179.91L270.292 179.879L270.325 179.847L266.789 176.311ZM269.804 174.27L271.789 178.859L271.817 178.847L271.846 178.834L269.804 174.27ZM313.269 174.27L311.181 178.813L311.254 178.847L311.328 178.878L313.269 174.27ZM316.33 176.311L312.795 179.847L312.827 179.879L312.859 179.91L316.33 176.311ZM318.371 179.326L313.763 181.266L313.772 181.289L313.782 181.311L318.371 179.326ZM319.113 191.572V196.572H324.113V191.572H319.113ZM309.604 191.572H304.604V196.572H309.604V191.572ZM309.604 182.991H314.604V177.991H309.604V182.991ZM273.515 182.991V177.991H268.515V182.991H273.515ZM273.515 230.491H268.515V235.491H273.515V230.491ZM309.604 230.491V235.491H314.604V230.491H309.604ZM309.604 221.956V216.956H304.604V221.956H309.604ZM319.113 221.956H324.113V216.956H319.113V221.956ZM318.371 234.202L322.96 236.186L322.97 236.164L322.979 236.142L318.371 234.202ZM313.269 239.258L311.328 234.65L311.306 234.659L311.284 234.669L313.269 239.258ZM269.804 239.258L267.82 243.847L267.842 243.857L267.864 243.866L269.804 239.258ZM266.789 237.217L263.254 240.752L266.789 237.217ZM264.748 234.202L260.14 236.142L260.149 236.164L260.159 236.186L264.748 234.202ZM269.006 182.991C269.006 182.345 269.125 181.802 269.337 181.311L260.159 177.342C259.382 179.139 259.006 181.038 259.006 182.991H269.006ZM269.356 181.266C269.604 180.678 269.91 180.247 270.26 179.91L263.318 172.712C261.936 174.045 260.882 175.624 260.14 177.386L269.356 181.266ZM270.325 179.847C270.736 179.435 271.213 179.108 271.789 178.859L267.82 169.681C266.107 170.421 264.573 171.456 263.254 172.776L270.325 179.847ZM271.846 178.834C272.373 178.598 272.914 178.481 273.515 178.481V168.481C271.519 168.481 269.586 168.89 267.762 169.706L271.846 178.834ZM273.515 178.481H309.604V168.481H273.515V178.481ZM309.604 178.481C310.206 178.481 310.713 178.598 311.181 178.813L315.356 169.727C313.536 168.89 311.6 168.481 309.604 168.481V178.481ZM311.328 178.878C311.932 179.133 312.405 179.457 312.795 179.847L319.866 172.776C318.524 171.433 316.955 170.397 315.209 169.662L311.328 178.878ZM312.859 179.91C313.209 180.247 313.515 180.678 313.763 181.266L322.979 177.386C322.238 175.624 321.183 174.045 319.801 172.712L312.859 179.91ZM313.782 181.311C313.994 181.802 314.113 182.345 314.113 182.991H324.113C324.113 181.038 323.737 179.139 322.96 177.342L313.782 181.311ZM314.113 182.991V191.572H324.113V182.991H314.113ZM319.113 186.572H309.604V196.572H319.113V186.572ZM314.604 191.572V182.991H304.604V191.572H314.604ZM309.604 177.991H273.515V187.991H309.604V177.991ZM268.515 182.991V230.491H278.515V182.991H268.515ZM273.515 235.491H309.604V225.491H273.515V235.491ZM314.604 230.491V221.956H304.604V230.491H314.604ZM309.604 226.956H319.113V216.956H309.604V226.956ZM314.113 221.956V230.491H324.113V221.956H314.113ZM314.113 230.491C314.113 231.136 313.994 231.712 313.763 232.261L322.979 236.142C323.738 234.341 324.113 232.443 324.113 230.491H314.113ZM313.782 232.217C313.533 232.793 313.206 233.269 312.795 233.681L319.866 240.752C321.186 239.432 322.22 237.899 322.96 236.186L313.782 232.217ZM312.795 233.681C312.405 234.071 311.932 234.395 311.328 234.65L315.209 243.866C316.955 243.131 318.524 242.094 319.866 240.752L312.795 233.681ZM311.284 234.669C310.793 234.881 310.249 235 309.604 235V245C311.556 245 313.456 244.624 315.253 243.847L311.284 234.669ZM309.604 235H273.515V245H309.604V235ZM273.515 235C272.87 235 272.294 234.881 271.744 234.65L267.864 243.866C269.665 244.624 271.563 245 273.515 245V235ZM271.789 234.669C271.213 234.419 270.736 234.093 270.325 233.681L263.254 240.752C264.573 242.072 266.107 243.107 267.82 243.847L271.789 234.669ZM270.325 233.681C269.913 233.269 269.586 232.793 269.337 232.217L260.159 236.186C260.899 237.899 261.934 239.432 263.254 240.752L270.325 233.681ZM269.356 232.261C269.125 231.712 269.006 231.136 269.006 230.491H259.006C259.006 232.443 259.382 234.341 260.14 236.142L269.356 232.261ZM269.006 230.491V182.991H259.006V230.491H269.006ZM375.38 234.434L370.811 232.403L370.788 232.456L370.765 232.511L375.38 234.434ZM373.432 237.356L376.968 240.891L373.432 237.356ZM370.556 239.304L372.526 243.9L372.556 243.887L372.587 243.873L370.556 239.304ZM338.967 239.304L336.936 243.873L336.99 243.897L337.044 243.92L338.967 239.304ZM336.044 237.356L332.443 240.824L332.508 240.892L332.576 240.958L336.044 237.356ZM334.096 234.434L329.481 236.357L329.503 236.411L329.527 236.464L334.096 234.434ZM334.096 196.165L329.527 194.134L329.503 194.187L329.481 194.241L334.096 196.165ZM336.044 193.289L332.509 189.753L336.044 193.289ZM338.967 191.34L340.89 195.956L340.944 195.933L340.997 195.909L338.967 191.34ZM370.556 191.34L368.477 195.888L368.555 195.923L368.633 195.956L370.556 191.34ZM373.432 193.289L369.831 196.757L369.896 196.825L369.964 196.89L373.432 193.289ZM375.38 196.165L370.765 198.088L370.788 198.142L370.811 198.195L375.38 196.165ZM342.492 199.736V194.736H337.492V199.736H342.492ZM342.492 230.862H337.492V235.862H342.492V230.862ZM367.031 230.862V235.862H372.031V230.862H367.031ZM367.031 199.736H372.031V194.736H367.031V199.736ZM371.123 230.862C371.123 231.459 371.01 231.955 370.811 232.403L379.949 236.464C380.74 234.686 381.123 232.8 381.123 230.862H371.123ZM370.765 232.511C370.547 233.034 370.26 233.457 369.897 233.82L376.968 240.891C378.274 239.585 379.286 238.06 379.996 236.357L370.765 232.511ZM369.897 233.82C369.557 234.16 369.118 234.472 368.525 234.735L372.587 243.873C374.221 243.147 375.7 242.16 376.968 240.891L369.897 233.82ZM368.587 234.708C368.173 234.886 367.674 235 367.031 235V245C368.923 245 370.774 244.65 372.526 243.9L368.587 234.708ZM367.031 235H342.492V245H367.031V235ZM342.492 235C341.898 235 341.378 234.892 340.89 234.689L337.044 243.92C338.782 244.644 340.612 245 342.492 245V235ZM340.997 234.735C340.389 234.465 339.907 234.134 339.513 233.754L332.576 240.958C333.851 242.186 335.318 243.154 336.936 243.873L340.997 234.735ZM339.646 233.888C339.266 233.493 338.936 233.012 338.665 232.403L329.527 236.464C330.246 238.082 331.215 239.549 332.443 240.824L339.646 233.888ZM338.712 232.511C338.515 232.038 338.4 231.504 338.4 230.862H328.4C328.4 232.755 328.75 234.603 329.481 236.357L338.712 232.511ZM338.4 230.862V199.736H328.4V230.862H338.4ZM338.4 199.736C338.4 199.094 338.515 198.561 338.712 198.088L329.481 194.241C328.75 195.995 328.4 197.843 328.4 199.736H338.4ZM338.665 198.195C338.929 197.602 339.24 197.164 339.58 196.824L332.509 189.753C331.241 191.021 330.253 192.5 329.527 194.134L338.665 198.195ZM339.58 196.824C339.943 196.461 340.366 196.174 340.89 195.956L337.044 186.725C335.341 187.435 333.816 188.446 332.509 189.753L339.58 196.824ZM340.997 195.909C341.461 195.703 341.944 195.598 342.492 195.598V185.598C340.567 185.598 338.699 185.988 336.936 186.771L340.997 195.909ZM342.492 195.598H367.031V185.598H342.492V195.598ZM367.031 195.598C367.629 195.598 368.09 195.71 368.477 195.888L372.635 186.793C370.858 185.981 368.968 185.598 367.031 185.598V195.598ZM368.633 195.956C369.14 196.167 369.521 196.435 369.831 196.757L377.034 189.82C375.735 188.472 374.199 187.441 372.479 186.725L368.633 195.956ZM369.964 196.89C370.286 197.2 370.554 197.58 370.765 198.088L379.996 194.241C379.279 192.522 378.249 190.985 376.9 189.687L369.964 196.89ZM370.811 198.195C371.01 198.643 371.123 199.139 371.123 199.736H381.123C381.123 197.798 380.74 195.913 379.949 194.134L370.811 198.195ZM371.123 199.736V230.862H381.123V199.736H371.123ZM337.492 199.736V230.862H347.492V199.736H337.492ZM342.492 235.862H367.031V225.862H342.492V235.862ZM372.031 230.862V199.736H362.031V230.862H372.031ZM367.031 194.736H342.492V204.736H367.031V194.736ZM435.08 240V245H440.08V240H435.08ZM425.942 240H420.942V245H425.942V240ZM425.942 199.736H430.942V194.736H425.942V199.736ZM400.476 199.736V194.736H395.476V199.736H400.476ZM400.476 240V245H405.476V240H400.476ZM391.384 240H386.384V245H391.384V240ZM391.384 190.598V185.598H386.384V190.598H391.384ZM400.476 190.598H405.476V185.598H400.476V190.598ZM400.476 199.319H395.476L405.469 199.575L400.476 199.319ZM401.311 195.933L405.835 198.062L405.846 198.037L405.858 198.011L401.311 195.933ZM403.259 193.149L406.724 196.754L406.727 196.751L403.259 193.149ZM406.135 191.294L407.992 195.936L408.048 195.914L408.104 195.89L406.135 191.294ZM429.514 191.34L427.483 195.909L427.537 195.933L427.591 195.956L429.514 191.34ZM432.39 193.289L428.788 196.757L428.853 196.825L428.921 196.89L432.39 193.289ZM434.338 196.165L429.723 198.088L429.745 198.142L429.769 198.195L434.338 196.165ZM435.08 235H425.942V245H435.08V235ZM430.942 240V199.736H420.942V240H430.942ZM425.942 194.736H400.476V204.736H425.942V194.736ZM395.476 199.736V240H405.476V199.736H395.476ZM400.476 235H391.384V245H400.476V235ZM396.384 240V190.598H386.384V240H396.384ZM391.384 195.598H400.476V185.598H391.384V195.598ZM395.476 190.598V199.319H405.476V190.598H395.476ZM405.469 199.575C405.499 198.992 405.627 198.502 405.835 198.062L396.786 193.804C396.004 195.466 395.576 197.234 395.482 199.063L405.469 199.575ZM405.858 198.011C406.109 197.462 406.403 197.062 406.724 196.754L399.793 189.545C398.506 190.783 397.502 192.238 396.763 193.854L405.858 198.011ZM406.727 196.751C407.094 196.397 407.505 196.131 407.992 195.936L404.278 186.652C402.6 187.323 401.093 188.294 399.791 189.548L406.727 196.751ZM408.104 195.89C408.533 195.706 409.019 195.598 409.614 195.598V185.598C407.734 185.598 405.901 185.954 404.165 186.698L408.104 195.89ZM409.614 195.598H425.942V185.598H409.614V195.598ZM425.942 195.598C426.539 195.598 427.035 195.71 427.483 195.909L431.544 186.771C429.766 185.981 427.88 185.598 425.942 185.598V195.598ZM427.591 195.956C428.098 196.167 428.478 196.435 428.788 196.757L435.991 189.82C434.693 188.472 433.156 187.441 431.437 186.725L427.591 195.956ZM428.921 196.89C429.243 197.2 429.511 197.58 429.723 198.088L438.953 194.241C438.237 192.522 437.206 190.985 435.858 189.687L428.921 196.89ZM429.769 198.195C429.968 198.643 430.08 199.139 430.08 199.736H440.08C440.08 197.798 439.697 195.913 438.907 194.134L429.769 198.195ZM430.08 199.736V240H440.08V199.736H430.08ZM493.991 240V245H498.991V240H493.991ZM484.853 240H479.853V245H484.853V240ZM484.853 199.736H489.853V194.736H484.853V199.736ZM459.387 199.736V194.736H454.387V199.736H459.387ZM459.387 240V245H464.387V240H459.387ZM450.295 240H445.295V245H450.295V240ZM450.295 190.598V185.598H445.295V190.598H450.295ZM459.387 190.598H464.387V185.598H459.387V190.598ZM459.387 199.319H454.387L464.38 199.575L459.387 199.319ZM460.222 195.933L464.746 198.062L464.758 198.037L464.769 198.011L460.222 195.933ZM462.17 193.149L465.635 196.754L465.638 196.751L462.17 193.149ZM465.046 191.294L466.903 195.936L466.959 195.914L467.015 195.89L465.046 191.294ZM488.425 191.34L486.394 195.909L486.448 195.933L486.502 195.956L488.425 191.34ZM491.301 193.289L487.699 196.757L487.765 196.825L487.833 196.89L491.301 193.289ZM493.249 196.165L488.634 198.088L488.656 198.142L488.68 198.195L493.249 196.165ZM493.991 235H484.853V245H493.991V235ZM489.853 240V199.736H479.853V240H489.853ZM484.853 194.736H459.387V204.736H484.853V194.736ZM454.387 199.736V240H464.387V199.736H454.387ZM459.387 235H450.295V245H459.387V235ZM455.295 240V190.598H445.295V240H455.295ZM450.295 195.598H459.387V185.598H450.295V195.598ZM454.387 190.598V199.319H464.387V190.598H454.387ZM464.38 199.575C464.41 198.992 464.538 198.502 464.746 198.062L455.698 193.804C454.915 195.466 454.487 197.234 454.393 199.063L464.38 199.575ZM464.769 198.011C465.02 197.462 465.314 197.062 465.635 196.754L458.704 189.545C457.417 190.783 456.413 192.238 455.674 193.854L464.769 198.011ZM465.638 196.751C466.006 196.397 466.416 196.131 466.903 195.936L463.189 186.652C461.511 187.323 460.004 188.294 458.702 189.548L465.638 196.751ZM467.015 195.89C467.444 195.706 467.93 195.598 468.525 195.598V185.598C466.646 185.598 464.812 185.954 463.076 186.698L467.015 195.89ZM468.525 195.598H484.853V185.598H468.525V195.598ZM484.853 195.598C485.45 195.598 485.946 195.71 486.394 195.909L490.456 186.771C488.677 185.981 486.791 185.598 484.853 185.598V195.598ZM486.502 195.956C487.009 196.167 487.389 196.435 487.699 196.757L494.902 189.82C493.604 188.472 492.067 187.441 490.348 186.725L486.502 195.956ZM487.833 196.89C488.154 197.2 488.422 197.58 488.634 198.088L497.864 194.241C497.148 192.522 496.117 190.985 494.769 189.687L487.833 196.89ZM488.68 198.195C488.879 198.643 488.991 199.139 488.991 199.736H498.991C498.991 197.798 498.609 195.913 497.818 194.134L488.68 198.195ZM488.991 199.736V240H498.991V199.736H488.991ZM551 219.961V224.961H556V219.961H551ZM518.298 219.961V214.961H513.298V219.961H518.298ZM518.298 230.862H513.298V235.862H518.298V230.862ZM551 230.862H556V225.862H551V230.862ZM551 240V245H556V240H551ZM514.772 239.304L512.742 243.873L512.795 243.897L512.849 243.92L514.772 239.304ZM511.85 237.356L508.249 240.824L508.314 240.892L508.382 240.958L511.85 237.356ZM509.902 234.434L505.286 236.357L505.309 236.411L505.333 236.464L509.902 234.434ZM509.902 196.165L505.333 194.134L505.309 194.187L505.286 194.241L509.902 196.165ZM511.85 193.289L508.315 189.753L511.85 193.289ZM514.772 191.34L516.696 195.956L516.75 195.933L516.803 195.909L514.772 191.34ZM545.434 191.34L543.403 195.909L543.457 195.933L543.511 195.956L545.434 191.34ZM548.31 193.289L544.708 196.757L544.774 196.825L544.842 196.89L548.31 193.289ZM550.258 196.165L545.643 198.088L545.665 198.142L545.689 198.195L550.258 196.165ZM518.298 199.736V194.736H513.298V199.736H518.298ZM518.298 210.823H513.298V215.823H518.298V210.823ZM541.862 210.823V215.823H546.862V210.823H541.862ZM541.862 199.736H546.862V194.736H541.862V199.736ZM551 214.961H518.298V224.961H551V214.961ZM513.298 219.961V230.862H523.298V219.961H513.298ZM518.298 235.862H551V225.862H518.298V235.862ZM546 230.862V240H556V230.862H546ZM551 235H518.298V245H551V235ZM518.298 235C517.704 235 517.184 234.892 516.696 234.689L512.849 243.92C514.588 244.644 516.418 245 518.298 245V235ZM516.803 234.735C516.194 234.465 515.713 234.134 515.318 233.754L508.382 240.958C509.657 242.186 511.124 243.154 512.742 243.873L516.803 234.735ZM515.452 233.888C515.072 233.493 514.742 233.012 514.471 232.403L505.333 236.464C506.052 238.082 507.02 239.549 508.249 240.824L515.452 233.888ZM514.517 232.511C514.32 232.038 514.206 231.504 514.206 230.862H504.206C504.206 232.755 504.556 234.603 505.286 236.357L514.517 232.511ZM514.206 230.862V199.736H504.206V230.862H514.206ZM514.206 199.736C514.206 199.094 514.32 198.561 514.517 198.088L505.286 194.241C504.556 195.995 504.206 197.843 504.206 199.736H514.206ZM514.471 198.195C514.734 197.602 515.046 197.164 515.386 196.824L508.315 189.753C507.046 191.021 506.059 192.5 505.333 194.134L514.471 198.195ZM515.386 196.824C515.749 196.461 516.172 196.174 516.696 195.956L512.849 186.725C511.146 187.435 509.621 188.446 508.315 189.753L515.386 196.824ZM516.803 195.909C517.267 195.703 517.749 195.598 518.298 195.598V185.598C516.372 185.598 514.504 185.988 512.742 186.771L516.803 195.909ZM518.298 195.598H541.862V185.598H518.298V195.598ZM541.862 195.598C542.46 195.598 542.956 195.71 543.403 195.909L547.465 186.771C545.686 185.981 543.801 185.598 541.862 185.598V195.598ZM543.511 195.956C544.018 196.167 544.399 196.435 544.708 196.757L551.912 189.82C550.613 188.472 549.076 187.441 547.357 186.725L543.511 195.956ZM544.842 196.89C545.164 197.2 545.432 197.58 545.643 198.088L554.874 194.241C554.157 192.522 553.127 190.985 551.778 189.687L544.842 196.89ZM545.689 198.195C545.888 198.643 546 199.139 546 199.736H556C556 197.798 555.618 195.913 554.827 194.134L545.689 198.195ZM546 199.736V219.961H556V199.736H546ZM513.298 199.736V210.823H523.298V199.736H513.298ZM518.298 215.823H541.862V205.823H518.298V215.823ZM546.862 210.823V199.736H536.862V210.823H546.862ZM541.862 194.736H518.298V204.736H541.862V194.736ZM575.354 199.736V194.736H570.354V199.736H575.354ZM575.354 230.862H570.354V235.862H575.354V230.862ZM598.918 230.862V235.862H603.918V230.862H598.918ZM598.918 222.512V217.512H593.918V222.512H598.918ZM608.056 222.512H613.056V217.512H608.056V222.512ZM607.314 234.434L602.745 232.403L602.721 232.456L602.699 232.511L607.314 234.434ZM605.366 237.356L608.901 240.891L605.366 237.356ZM602.49 239.304L604.413 243.92L604.467 243.897L604.52 243.873L602.49 239.304ZM571.828 239.304L569.797 243.873L569.851 243.897L569.905 243.92L571.828 239.304ZM568.906 237.356L565.304 240.824L565.37 240.892L565.438 240.958L568.906 237.356ZM566.958 234.434L562.342 236.357L562.365 236.411L562.388 236.464L566.958 234.434ZM566.958 196.165L562.388 194.134L562.365 194.187L562.342 194.241L566.958 196.165ZM568.906 193.289L565.37 189.753L568.906 193.289ZM571.828 191.34L573.751 195.956L573.805 195.933L573.859 195.909L571.828 191.34ZM602.49 191.34L600.459 195.909L600.513 195.933L600.567 195.956L602.49 191.34ZM605.366 193.289L601.764 196.757L601.83 196.825L601.898 196.89L605.366 193.289ZM607.314 196.165L602.699 198.088L602.721 198.142L602.745 198.195L607.314 196.165ZM608.056 208.086V213.086H613.056V208.086H608.056ZM598.918 208.086H593.918V213.086H598.918V208.086ZM598.918 199.736H603.918V194.736H598.918V199.736ZM570.354 199.736V230.862H580.354V199.736H570.354ZM575.354 235.862H598.918V225.862H575.354V235.862ZM603.918 230.862V222.512H593.918V230.862H603.918ZM598.918 227.512H608.056V217.512H598.918V227.512ZM603.056 222.512V230.862H613.056V222.512H603.056ZM603.056 230.862C603.056 231.459 602.944 231.955 602.745 232.403L611.883 236.464C612.674 234.686 613.056 232.8 613.056 230.862H603.056ZM602.699 232.511C602.48 233.034 602.193 233.457 601.83 233.82L608.901 240.891C610.208 239.585 611.22 238.06 611.929 236.357L602.699 232.511ZM601.83 233.82C601.49 234.16 601.052 234.472 600.459 234.735L604.52 243.873C606.154 243.147 607.633 242.16 608.901 240.891L601.83 233.82ZM600.567 234.689C600.094 234.886 599.56 235 598.918 235V245C600.812 245 602.659 244.65 604.413 243.92L600.567 234.689ZM598.918 235H575.354V245H598.918V235ZM575.354 235C574.759 235 574.239 234.892 573.751 234.689L569.905 243.92C571.643 244.644 573.474 245 575.354 245V235ZM573.859 234.735C573.25 234.465 572.769 234.134 572.374 233.754L565.438 240.958C566.713 242.186 568.18 243.154 569.797 243.873L573.859 234.735ZM572.507 233.888C572.127 233.493 571.797 233.012 571.527 232.403L562.388 236.464C563.107 238.082 564.076 239.549 565.304 240.824L572.507 233.888ZM571.573 232.511C571.376 232.038 571.262 231.504 571.262 230.862H561.262C561.262 232.755 561.611 234.603 562.342 236.357L571.573 232.511ZM571.262 230.862V199.736H561.262V230.862H571.262ZM571.262 199.736C571.262 199.094 571.376 198.561 571.573 198.088L562.342 194.241C561.611 195.995 561.262 197.843 561.262 199.736H571.262ZM571.527 198.195C571.79 197.602 572.101 197.164 572.441 196.824L565.37 189.753C564.102 191.021 563.115 192.5 562.388 194.134L571.527 198.195ZM572.441 196.824C572.804 196.461 573.228 196.174 573.751 195.956L569.905 186.725C568.202 187.435 566.677 188.446 565.37 189.753L572.441 196.824ZM573.859 195.909C574.323 195.703 574.805 195.598 575.354 195.598V185.598C573.428 185.598 571.56 185.988 569.797 186.771L573.859 195.909ZM575.354 195.598H598.918V185.598H575.354V195.598ZM598.918 195.598C599.515 195.598 600.011 195.71 600.459 195.909L604.52 186.771C602.742 185.981 600.856 185.598 598.918 185.598V195.598ZM600.567 195.956C601.074 196.167 601.454 196.435 601.764 196.757L608.967 189.82C607.669 188.472 606.132 187.441 604.413 186.725L600.567 195.956ZM601.898 196.89C602.219 197.2 602.487 197.58 602.699 198.088L611.929 194.241C611.213 192.522 610.182 190.985 608.834 189.687L601.898 196.89ZM602.745 198.195C602.944 198.643 603.056 199.139 603.056 199.736H613.056C613.056 197.798 612.674 195.913 611.883 194.134L602.745 198.195ZM603.056 199.736V208.086H613.056V199.736H603.056ZM608.056 203.086H598.918V213.086H608.056V203.086ZM603.918 208.086V199.736H593.918V208.086H603.918ZM598.918 194.736H575.354V204.736H598.918V194.736ZM620.441 190.598V185.598H615.441V190.598H620.441ZM632.502 190.598V195.598H637.502V190.598H632.502ZM632.502 175.383V170.383H627.502V175.383H632.502ZM641.64 175.383H646.64V170.383H641.64V175.383ZM641.64 190.598H636.64V195.598H641.64V190.598ZM657.875 190.598H662.875V185.598H657.875V190.598ZM657.875 199.736V204.736H662.875V199.736H657.875ZM641.64 199.736V194.736H636.64V199.736H641.64ZM641.64 230.862H636.64V235.862H641.64V230.862ZM657.875 230.862H662.875V225.862H657.875V230.862ZM657.875 240V245H662.875V240H657.875ZM638.115 239.304L636.084 243.873L636.138 243.897L636.192 243.92L638.115 239.304ZM635.192 237.356L631.657 240.891L631.69 240.925L631.724 240.958L635.192 237.356ZM633.198 234.434L628.582 236.357L628.605 236.411L628.629 236.464L633.198 234.434ZM632.502 199.736H637.502V194.736H632.502V199.736ZM620.441 199.736H615.441V204.736H620.441V199.736ZM620.441 195.598H632.502V185.598H620.441V195.598ZM637.502 190.598V175.383H627.502V190.598H637.502ZM632.502 180.383H641.64V170.383H632.502V180.383ZM636.64 175.383V190.598H646.64V175.383H636.64ZM641.64 195.598H657.875V185.598H641.64V195.598ZM652.875 190.598V199.736H662.875V190.598H652.875ZM657.875 194.736H641.64V204.736H657.875V194.736ZM636.64 199.736V230.862H646.64V199.736H636.64ZM641.64 235.862H657.875V225.862H641.64V235.862ZM652.875 230.862V240H662.875V230.862H652.875ZM657.875 235H641.64V245H657.875V235ZM641.64 235C641.046 235 640.526 234.892 640.038 234.689L636.192 243.92C637.93 244.644 639.76 245 641.64 245V235ZM640.145 234.735C639.537 234.465 639.055 234.134 638.661 233.754L631.724 240.958C632.999 242.186 634.466 243.154 636.084 243.873L640.145 234.735ZM638.728 233.82C638.341 233.433 638.02 232.974 637.767 232.403L628.629 236.464C629.365 238.12 630.374 239.609 631.657 240.891L638.728 233.82ZM637.813 232.511C637.616 232.038 637.502 231.504 637.502 230.862H627.502C627.502 232.755 627.852 234.603 628.582 236.357L637.813 232.511ZM637.502 230.862V199.736H627.502V230.862H637.502ZM632.502 194.736H620.441V204.736H632.502V194.736ZM625.441 199.736V190.598H615.441V199.736H625.441ZM435.776 258.481H440.776V253.481H435.776V258.481ZM435.776 325V330H440.776V325H435.776ZM426.267 325H421.267V330H426.267V325ZM426.267 258.481V253.481H421.267V258.481H426.267ZM430.776 258.481V325H440.776V258.481H430.776ZM435.776 320H426.267V330H435.776V320ZM431.267 325V258.481H421.267V325H431.267ZM426.267 263.481H435.776V253.481H426.267V263.481ZM495.661 325V330H500.661V325H495.661ZM486.523 325H481.523V330H486.523V325ZM486.523 284.736H491.523V279.736H486.523V284.736ZM461.057 284.736V279.736H456.057V284.736H461.057ZM461.057 325V330H466.057V325H461.057ZM451.965 325H446.965V330H451.965V325ZM451.965 275.598V270.598H446.965V275.598H451.965ZM461.057 275.598H466.057V270.598H461.057V275.598ZM461.057 284.319H456.057L466.05 284.575L461.057 284.319ZM461.892 280.933L466.416 283.062L466.427 283.037L466.439 283.011L461.892 280.933ZM463.84 278.149L467.305 281.754L467.308 281.751L463.84 278.149ZM466.716 276.294L468.573 280.936L468.629 280.914L468.685 280.89L466.716 276.294ZM490.095 276.34L488.064 280.909L488.118 280.933L488.172 280.956L490.095 276.34ZM492.971 278.289L489.369 281.757L489.435 281.825L489.503 281.89L492.971 278.289ZM494.919 281.165L490.304 283.088L490.326 283.142L490.35 283.195L494.919 281.165ZM495.661 320H486.523V330H495.661V320ZM491.523 325V284.736H481.523V325H491.523ZM486.523 279.736H461.057V289.736H486.523V279.736ZM456.057 284.736V325H466.057V284.736H456.057ZM461.057 320H451.965V330H461.057V320ZM456.965 325V275.598H446.965V325H456.965ZM451.965 280.598H461.057V270.598H451.965V280.598ZM456.057 275.598V284.319H466.057V275.598H456.057ZM466.05 284.575C466.08 283.992 466.208 283.502 466.416 283.062L457.368 278.804C456.585 280.466 456.157 282.234 456.063 284.063L466.05 284.575ZM466.439 283.011C466.69 282.462 466.984 282.062 467.305 281.754L460.374 274.545C459.087 275.783 458.083 277.238 457.344 278.854L466.439 283.011ZM467.308 281.751C467.675 281.397 468.086 281.131 468.573 280.936L464.859 271.652C463.181 272.323 461.674 273.294 460.372 274.548L467.308 281.751ZM468.685 280.89C469.114 280.706 469.6 280.598 470.195 280.598V270.598C468.316 270.598 466.482 270.954 464.746 271.698L468.685 280.89ZM470.195 280.598H486.523V270.598H470.195V280.598ZM486.523 280.598C487.12 280.598 487.616 280.71 488.064 280.909L492.125 271.771C490.347 270.981 488.461 270.598 486.523 270.598V280.598ZM488.172 280.956C488.679 281.167 489.059 281.435 489.369 281.757L496.572 274.82C495.274 273.472 493.737 272.441 492.018 271.725L488.172 280.956ZM489.503 281.89C489.824 282.2 490.092 282.58 490.304 283.088L499.534 279.241C498.818 277.522 497.787 275.985 496.439 274.687L489.503 281.89ZM490.35 283.195C490.549 283.643 490.661 284.139 490.661 284.736H500.661C500.661 282.798 500.279 280.913 499.488 279.134L490.35 283.195ZM490.661 284.736V325H500.661V284.736H490.661ZM351.723 349.326L356.312 351.311L356.322 351.289L356.331 351.266L351.723 349.326ZM353.764 346.311L357.235 349.91L357.268 349.879L357.3 349.847L353.764 346.311ZM356.779 344.27L358.764 348.859L358.793 348.847L358.821 348.834L356.779 344.27ZM400.244 344.27L398.156 348.813L398.229 348.847L398.303 348.878L400.244 344.27ZM403.305 346.311L399.77 349.847L399.802 349.879L399.835 349.91L403.305 346.311ZM405.346 349.326L400.738 351.266L400.747 351.289L400.757 351.311L405.346 349.326ZM406.088 361.572V366.572H411.088V361.572H406.088ZM396.579 361.572H391.579V366.572H396.579V361.572ZM396.579 352.991H401.579V347.991H396.579V352.991ZM360.49 352.991V347.991H355.49V352.991H360.49ZM360.49 400.491H355.49V405.491H360.49V400.491ZM396.579 400.491V405.491H401.579V400.491H396.579ZM396.579 391.956V386.956H391.579V391.956H396.579ZM406.088 391.956H411.088V386.956H406.088V391.956ZM405.346 404.202L409.935 406.186L409.945 406.164L409.954 406.142L405.346 404.202ZM400.244 409.258L398.303 404.65L398.281 404.659L398.259 404.669L400.244 409.258ZM356.779 409.258L354.795 413.847L354.817 413.857L354.839 413.866L356.779 409.258ZM353.764 407.217L350.229 410.752L353.764 407.217ZM351.723 404.202L347.115 406.142L347.124 406.164L347.134 406.186L351.723 404.202ZM355.981 352.991C355.981 352.345 356.1 351.802 356.312 351.311L347.134 347.342C346.357 349.139 345.981 351.038 345.981 352.991H355.981ZM356.331 351.266C356.579 350.678 356.885 350.247 357.235 349.91L350.293 342.712C348.911 344.045 347.857 345.624 347.115 347.386L356.331 351.266ZM357.3 349.847C357.712 349.435 358.188 349.108 358.764 348.859L354.795 339.681C353.082 340.421 351.549 341.456 350.229 342.775L357.3 349.847ZM358.821 348.834C359.348 348.598 359.889 348.481 360.49 348.481V338.481C358.494 338.481 356.561 338.89 354.737 339.706L358.821 348.834ZM360.49 348.481H396.579V338.481H360.49V348.481ZM396.579 348.481C397.181 348.481 397.688 348.598 398.156 348.813L402.331 339.727C400.511 338.89 398.575 338.481 396.579 338.481V348.481ZM398.303 348.878C398.907 349.133 399.38 349.457 399.77 349.847L406.841 342.775C405.499 341.433 403.93 340.397 402.184 339.662L398.303 348.878ZM399.835 349.91C400.184 350.247 400.49 350.678 400.738 351.266L409.954 347.386C409.213 345.624 408.158 344.045 406.776 342.712L399.835 349.91ZM400.757 351.311C400.969 351.802 401.088 352.345 401.088 352.991H411.088C411.088 351.038 410.713 349.139 409.935 347.342L400.757 351.311ZM401.088 352.991V361.572H411.088V352.991H401.088ZM406.088 356.572H396.579V366.572H406.088V356.572ZM401.579 361.572V352.991H391.579V361.572H401.579ZM396.579 347.991H360.49V357.991H396.579V347.991ZM355.49 352.991V400.491H365.49V352.991H355.49ZM360.49 405.491H396.579V395.491H360.49V405.491ZM401.579 400.491V391.956H391.579V400.491H401.579ZM396.579 396.956H406.088V386.956H396.579V396.956ZM401.088 391.956V400.491H411.088V391.956H401.088ZM401.088 400.491C401.088 401.136 400.969 401.712 400.738 402.261L409.954 406.142C410.713 404.341 411.088 402.443 411.088 400.491H401.088ZM400.757 402.217C400.508 402.793 400.181 403.269 399.77 403.681L406.841 410.752C408.161 409.432 409.195 407.899 409.935 406.186L400.757 402.217ZM399.77 403.681C399.38 404.071 398.907 404.395 398.303 404.65L402.184 413.866C403.93 413.131 405.499 412.094 406.841 410.752L399.77 403.681ZM398.259 404.669C397.768 404.881 397.225 405 396.579 405V415C398.531 415 400.431 414.624 402.228 413.847L398.259 404.669ZM396.579 405H360.49V415H396.579V405ZM360.49 405C359.845 405 359.269 404.881 358.72 404.65L354.839 413.866C356.64 414.624 358.538 415 360.49 415V405ZM358.764 404.669C358.188 404.419 357.712 404.093 357.3 403.681L350.229 410.752C351.549 412.072 353.082 413.107 354.795 413.847L358.764 404.669ZM357.3 403.681C356.888 403.269 356.562 402.793 356.312 402.217L347.134 406.186C347.874 407.899 348.909 409.432 350.229 410.752L357.3 403.681ZM356.331 402.261C356.1 401.712 355.981 401.136 355.981 400.491H345.981C345.981 402.443 346.357 404.341 347.115 406.142L356.331 402.261ZM355.981 400.491V352.991H345.981V400.491H355.981ZM464.072 410V415H469.072V410H464.072ZM454.934 410H449.934V415H454.934V410ZM454.934 369.736H459.934V364.736H454.934V369.736ZM429.467 369.736V364.736H424.467V369.736H429.467ZM429.467 410V415H434.467V410H429.467ZM420.375 410H415.375V415H420.375V410ZM420.375 341.58V336.58H415.375V341.58H420.375ZM429.467 341.58H434.467V336.58H429.467V341.58ZM429.467 369.319H424.467L434.461 369.575L429.467 369.319ZM430.302 365.933L434.826 368.062L434.838 368.037L434.85 368.011L430.302 365.933ZM432.25 363.149L435.716 366.754L435.719 366.751L432.25 363.149ZM435.126 361.294L436.983 365.936L437.04 365.914L437.096 365.89L435.126 361.294ZM458.505 361.34L456.475 365.909L456.528 365.933L456.582 365.956L458.505 361.34ZM461.381 363.289L457.78 366.757L457.845 366.825L457.913 366.89L461.381 363.289ZM463.33 366.165L458.714 368.088L458.737 368.142L458.761 368.195L463.33 366.165ZM464.072 405H454.934V415H464.072V405ZM459.934 410V369.736H449.934V410H459.934ZM454.934 364.736H429.467V374.736H454.934V364.736ZM424.467 369.736V410H434.467V369.736H424.467ZM429.467 405H420.375V415H429.467V405ZM425.375 410V341.58H415.375V410H425.375ZM420.375 346.58H429.467V336.58H420.375V346.58ZM424.467 341.58V369.319H434.467V341.58H424.467ZM434.461 369.575C434.491 368.992 434.619 368.502 434.826 368.062L425.778 363.804C424.996 365.466 424.568 367.234 424.474 369.063L434.461 369.575ZM434.85 368.011C435.101 367.462 435.395 367.062 435.716 366.754L428.785 359.545C427.498 360.783 426.493 362.238 425.755 363.854L434.85 368.011ZM435.719 366.751C436.086 366.397 436.497 366.131 436.983 365.936L433.27 356.652C431.591 357.323 430.085 358.294 428.782 359.548L435.719 366.751ZM437.096 365.89C437.525 365.706 438.011 365.598 438.605 365.598V355.598C436.726 355.598 434.893 355.954 433.157 356.698L437.096 365.89ZM438.605 365.598H454.934V355.598H438.605V365.598ZM454.934 365.598C455.531 365.598 456.027 365.71 456.475 365.909L460.536 356.771C458.757 355.981 456.872 355.598 454.934 355.598V365.598ZM456.582 365.956C457.09 366.167 457.47 366.435 457.78 366.757L464.983 359.82C463.685 358.472 462.148 357.441 460.428 356.725L456.582 365.956ZM457.913 366.89C458.235 367.2 458.503 367.58 458.714 368.088L467.945 364.241C467.229 362.522 466.198 360.985 464.85 359.687L457.913 366.89ZM458.761 368.195C458.96 368.643 459.072 369.139 459.072 369.736H469.072C469.072 367.798 468.689 365.913 467.899 364.134L458.761 368.195ZM459.072 369.736V410H469.072V369.736H459.072ZM479.982 384.905L475.413 382.874L475.4 382.905L475.387 382.935L479.982 384.905ZM481.931 381.982L478.395 378.447L478.362 378.48L478.329 378.514L481.931 381.982ZM484.853 380.034L486.776 384.65L486.83 384.627L486.884 384.603L484.853 380.034ZM511.943 379.292V384.292H516.943V379.292H511.943ZM511.943 369.736H516.943V364.736H511.943V369.736ZM482.116 369.736H477.116V374.736H482.116V369.736ZM482.116 360.598V355.598H477.116V360.598H482.116ZM515.515 361.34L513.484 365.909L513.538 365.933L513.592 365.956L515.515 361.34ZM518.391 363.289L514.789 366.757L514.854 366.825L514.922 366.89L518.391 363.289ZM520.339 366.165L515.723 368.088L515.746 368.142L515.77 368.195L520.339 366.165ZM521.081 410V415H526.081V410H521.081ZM511.943 410H506.943V415H511.943V410ZM511.943 401.65H516.943L506.959 401.246L511.943 401.65ZM508.974 407.588L512.366 411.262L512.371 411.257L508.974 407.588ZM484.853 409.304L482.822 413.873L482.876 413.897L482.93 413.92L484.853 409.304ZM481.931 407.356L478.329 410.824L478.395 410.892L478.462 410.958L481.931 407.356ZM479.982 404.434L475.367 406.357L475.39 406.411L475.413 406.464L479.982 404.434ZM488.378 400.862H483.378V405.862H488.378V400.862ZM511.943 400.862V405.862H516.943V400.862H511.943ZM511.943 388.43H516.943V383.43H511.943V388.43ZM488.378 388.43V383.43H483.378V388.43H488.378ZM484.287 388.43C484.287 387.787 484.401 387.288 484.578 386.874L475.387 382.935C474.636 384.686 474.287 386.538 474.287 388.43H484.287ZM484.551 386.935C484.822 386.327 485.152 385.845 485.532 385.451L478.329 378.514C477.101 379.789 476.132 381.256 475.413 382.874L484.551 386.935ZM485.466 385.518C485.829 385.155 486.252 384.868 486.776 384.65L482.93 375.419C481.227 376.128 479.702 377.14 478.395 378.447L485.466 385.518ZM486.884 384.603C487.348 384.397 487.83 384.292 488.378 384.292V374.292C486.453 374.292 484.585 374.682 482.822 375.465L486.884 384.603ZM488.378 384.292H511.943V374.292H488.378V384.292ZM516.943 379.292V369.736H506.943V379.292H516.943ZM511.943 364.736H482.116V374.736H511.943V364.736ZM487.116 369.736V360.598H477.116V369.736H487.116ZM482.116 365.598H511.943V355.598H482.116V365.598ZM511.943 365.598C512.54 365.598 513.036 365.71 513.484 365.909L517.545 356.771C515.767 355.981 513.881 355.598 511.943 355.598V365.598ZM513.592 365.956C514.099 366.167 514.479 366.435 514.789 366.757L521.992 359.82C520.694 358.472 519.157 357.441 517.438 356.725L513.592 365.956ZM514.922 366.89C515.244 367.2 515.512 367.58 515.723 368.088L524.954 364.241C524.238 362.522 523.207 360.985 521.859 359.687L514.922 366.89ZM515.77 368.195C515.969 368.643 516.081 369.139 516.081 369.736H526.081C526.081 367.798 525.698 365.913 524.908 364.134L515.77 368.195ZM516.081 369.736V410H526.081V369.736H516.081ZM521.081 405H511.943V415H521.081V405ZM516.943 410V401.65H506.943V410H516.943ZM506.959 401.246C506.92 401.733 506.794 402.174 506.57 402.608L515.46 407.187C516.288 405.58 516.78 403.857 516.927 402.054L506.959 401.246ZM506.57 402.608C506.309 403.116 505.981 403.545 505.577 403.919L512.371 411.257C513.637 410.085 514.67 408.72 515.46 407.187L506.57 402.608ZM505.583 403.914C505.231 404.238 504.812 404.511 504.287 404.727L508.095 413.974C509.673 413.324 511.109 412.422 512.366 411.262L505.583 403.914ZM504.287 404.727C503.86 404.903 503.395 405 502.851 405V415C504.657 415 506.419 414.664 508.095 413.974L504.287 404.727ZM502.851 405H488.378V415H502.851V405ZM488.378 405C487.784 405 487.264 404.892 486.776 404.689L482.93 413.92C484.668 414.644 486.499 415 488.378 415V405ZM486.884 404.735C486.275 404.465 485.794 404.134 485.399 403.754L478.462 410.958C479.738 412.186 481.205 413.154 482.822 413.873L486.884 404.735ZM485.532 403.888C485.152 403.493 484.822 403.012 484.551 402.403L475.413 406.464C476.132 408.082 477.101 409.549 478.329 410.824L485.532 403.888ZM484.598 402.511C484.401 402.038 484.287 401.504 484.287 400.862H474.287C474.287 402.755 474.636 404.603 475.367 406.357L484.598 402.511ZM484.287 400.862V388.43H474.287V400.862H484.287ZM488.378 405.862H511.943V395.862H488.378V405.862ZM516.943 400.862V388.43H506.943V400.862H516.943ZM511.943 383.43H488.378V393.43H511.943V383.43ZM483.378 388.43V400.862H493.378V388.43H483.378ZM533.466 360.598V355.598H528.466V360.598H533.466ZM545.527 360.598V365.598H550.527V360.598H545.527ZM545.527 345.383V340.383H540.527V345.383H545.527ZM554.665 345.383H559.665V340.383H554.665V345.383ZM554.665 360.598H549.665V365.598H554.665V360.598ZM570.9 360.598H575.9V355.598H570.9V360.598ZM570.9 369.736V374.736H575.9V369.736H570.9ZM554.665 369.736V364.736H549.665V369.736H554.665ZM554.665 400.862H549.665V405.862H554.665V400.862ZM570.9 400.862H575.9V395.862H570.9V400.862ZM570.9 410V415H575.9V410H570.9ZM551.14 409.304L549.109 413.873L549.163 413.897L549.217 413.92L551.14 409.304ZM548.217 407.356L544.682 410.891L544.715 410.925L544.749 410.958L548.217 407.356ZM546.223 404.434L541.607 406.357L541.63 406.411L541.654 406.464L546.223 404.434ZM545.527 369.736H550.527V364.736H545.527V369.736ZM533.466 369.736H528.466V374.736H533.466V369.736ZM533.466 365.598H545.527V355.598H533.466V365.598ZM550.527 360.598V345.383H540.527V360.598H550.527ZM545.527 350.383H554.665V340.383H545.527V350.383ZM549.665 345.383V360.598H559.665V345.383H549.665ZM554.665 365.598H570.9V355.598H554.665V365.598ZM565.9 360.598V369.736H575.9V360.598H565.9ZM570.9 364.736H554.665V374.736H570.9V364.736ZM549.665 369.736V400.862H559.665V369.736H549.665ZM554.665 405.862H570.9V395.862H554.665V405.862ZM565.9 400.862V410H575.9V400.862H565.9ZM570.9 405H554.665V415H570.9V405ZM554.665 405C554.071 405 553.551 404.892 553.063 404.689L549.217 413.92C550.955 414.644 552.785 415 554.665 415V405ZM553.17 404.735C552.561 404.465 552.08 404.134 551.685 403.754L544.749 410.958C546.024 412.186 547.491 413.154 549.109 413.873L553.17 404.735ZM551.753 403.82C551.366 403.433 551.045 402.974 550.792 402.403L541.654 406.464C542.39 408.12 543.399 409.609 544.682 410.891L551.753 403.82ZM550.838 402.511C550.641 402.038 550.527 401.504 550.527 400.862H540.527C540.527 402.755 540.877 404.603 541.607 406.357L550.838 402.511ZM550.527 400.862V369.736H540.527V400.862H550.527ZM545.527 364.736H533.466V374.736H545.527V364.736ZM538.466 369.736V360.598H528.466V369.736H538.466Z" fill="black"/>
</svg>
